<?xml version="1.0" standalone="no"?>
<!DOCTYPE svg PUBLIC "-//W3C//DTD SVG 20010904//EN"
 "http://www.w3.org/TR/2001/REC-SVG-20010904/DTD/svg10.dtd">
<svg version="1.0" xmlns="http://www.w3.org/2000/svg"
 width="256.000000pt" height="256.000000pt" viewBox="0 0 256.000000 256.000000"
 preserveAspectRatio="xMidYMid meet">
<metadata>
Created by potrace 1.11, written by Peter Selinger 2001-2013
</metadata>
<g transform="translate(0.000000,256.000000) scale(0.100000,-0.100000)"
fill="#000000" stroke="none">
<path d="M1165 2309 c-228 -25 -444 -129 -611 -294 -562 -555 -319 -1509 440
-1729 548 -159 1121 157 1280 708 136 467 -73 964 -504 1199 -173 94 -403 138
-605 116z m318 -129 c123 -32 129 -37 175 -142 46 -104 62 -187 41 -205 -8 -5
-68 -39 -135 -74 l-121 -63 -104 32 c-129 40 -230 62 -290 62 -26 0 -51 6 -56
13 -6 6 -23 53 -38 102 -15 50 -29 93 -32 97 -7 12 88 107 132 133 22 13 79
37 126 53 78 26 94 28 155 20 37 -4 104 -17 147 -28z m-526 -70 c-61 -58 -79
-70 -117 -76 -25 -3 -72 -17 -106 -30 -74 -29 -87 -30 -54 -3 88 72 288 178
337 179 7 0 -20 -31 -60 -70z m906 -101 c99 -77 195 -197 253 -314 24 -50 44
-96 44 -103 0 -8 -18 -12 -52 -12 -29 0 -62 -3 -73 -6 -17 -4 -29 6 -60 51
-21 31 -77 93 -125 138 -86 81 -87 83 -105 157 -10 41 -28 95 -40 120 -12 25
-26 56 -30 69 -7 23 -7 23 51 -8 33 -17 94 -59 137 -92z m-1391 -326 c-15 -71
-26 -100 -55 -137 -20 -26 -38 -53 -40 -59 -2 -7 -7 -9 -11 -6 -9 8 48 170 85
239 17 33 34 59 36 57 2 -2 -5 -44 -15 -94z m686 47 c54 -11 135 -32 182 -48
l85 -29 52 -178 52 -178 -151 -166 c-84 -91 -156 -168 -161 -170 -15 -6 -199
30 -278 55 -75 24 -77 25 -97 72 -57 131 -111 364 -98 417 4 14 54 75 113 135
l106 110 49 0 c28 0 93 -9 146 -20z m-560 -216 l100 -36 6 -57 c9 -75 48 -220
85 -317 l30 -76 -66 -125 -65 -124 -32 7 c-61 13 -181 54 -203 69 -40 28 -97
212 -109 355 -6 68 -4 82 23 151 33 85 98 189 118 189 8 0 58 -16 113 -36z
m1592 -16 c6 -24 14 -110 17 -193 4 -137 2 -158 -21 -247 -13 -54 -37 -125
-52 -158 l-27 -60 -47 0 -47 0 -12 88 c-7 48 -29 135 -48 195 l-36 107 30 68
c28 61 50 130 67 204 6 25 11 27 64 31 31 2 67 4 78 5 17 2 24 -6 34 -40z
m-470 -258 c84 -16 154 -31 155 -32 2 -2 17 -42 33 -90 32 -90 68 -290 56
-311 -27 -47 -121 -149 -182 -198 l-73 -59 -72 0 c-101 1 -317 52 -317 76 0 3
-14 68 -31 145 -16 77 -29 147 -27 155 2 11 296 344 303 344 1 0 71 -13 155
-30z m-1117 -485 l89 -22 73 -79 c40 -43 98 -95 129 -114 55 -35 56 -36 56
-82 0 -59 -6 -60 -95 -13 -136 71 -265 183 -345 299 -26 39 -29 48 -14 42 10
-4 59 -18 107 -31z m744 -194 c67 -26 186 -50 263 -53 69 -3 80 -9 80 -46 0
-19 -11 -28 -57 -48 -75 -33 -198 -62 -303 -69 -86 -7 -254 12 -313 34 -26 10
-28 14 -25 63 l3 53 51 7 c28 4 93 23 145 42 52 19 97 35 101 35 4 1 29 -7 55
-18z"/>
</g>
</svg>
